<mxfile host="app.diagrams.net" modified="2024-01-16T21:04:33.360Z" agent="Mozilla/5.0 (Windows NT 10.0; Win64; x64) AppleWebKit/537.36 (KHTML, like Gecko) Chrome/120.0.0.0 Safari/537.36" etag="dUXGH3UQp0gqqf1VBYPg" version="22.1.18" type="github">
  <diagram name="Page-1" id="hTFdX83qYEZd8IfZYUsu">
    <mxGraphModel dx="925" dy="53" grid="1" gridSize="10" guides="1" tooltips="1" connect="1" arrows="1" fold="1" page="1" pageScale="1" pageWidth="827" pageHeight="1169" math="0" shadow="0">
      <root>
        <mxCell id="0" />
        <mxCell id="1" parent="0" />
        <mxCell id="R1ZFnsMOZ1m3BJX5WP95-6" value="" style="rounded=0;whiteSpace=wrap;html=1;fillColor=#FFFFFF;" vertex="1" parent="1">
          <mxGeometry x="-80" y="35" width="760" height="505" as="geometry" />
        </mxCell>
        <mxCell id="R1ZFnsMOZ1m3BJX5WP95-1" value="" style="rounded=0;whiteSpace=wrap;html=1;dashed=1;dashPattern=8 8;strokeColor=#0000FF;" vertex="1" parent="1">
          <mxGeometry x="200" y="95" width="390" height="380" as="geometry" />
        </mxCell>
        <mxCell id="R1ZFnsMOZ1m3BJX5WP95-2" value="" style="fontColor=#0066CC;verticalAlign=top;verticalLabelPosition=bottom;labelPosition=center;align=center;html=1;outlineConnect=0;fillColor=#CCCCCC;strokeColor=#6881B3;gradientColor=none;gradientDirection=north;strokeWidth=2;shape=mxgraph.networks.pc;" vertex="1" parent="1">
          <mxGeometry x="-10" y="250" width="100" height="70" as="geometry" />
        </mxCell>
        <mxCell id="R1ZFnsMOZ1m3BJX5WP95-3" value="" style="sketch=0;aspect=fixed;pointerEvents=1;shadow=0;dashed=0;html=1;strokeColor=none;labelPosition=center;verticalLabelPosition=bottom;verticalAlign=top;align=center;fillColor=#00188D;shape=mxgraph.azure.server_rack" vertex="1" parent="1">
          <mxGeometry x="440" y="130" width="100" height="100" as="geometry" />
        </mxCell>
        <mxCell id="R1ZFnsMOZ1m3BJX5WP95-4" value="" style="sketch=0;aspect=fixed;pointerEvents=1;shadow=0;dashed=0;html=1;strokeColor=none;labelPosition=center;verticalLabelPosition=bottom;verticalAlign=top;align=center;fillColor=#00188D;shape=mxgraph.azure.server_rack" vertex="1" parent="1">
          <mxGeometry x="440" y="330" width="100" height="100" as="geometry" />
        </mxCell>
        <mxCell id="R1ZFnsMOZ1m3BJX5WP95-5" value="" style="sketch=0;aspect=fixed;pointerEvents=1;shadow=0;dashed=0;html=1;strokeColor=none;labelPosition=center;verticalLabelPosition=bottom;verticalAlign=top;align=center;fillColor=#00188D;shape=mxgraph.azure.server" vertex="1" parent="1">
          <mxGeometry x="270" y="271.5" width="90" height="27" as="geometry" />
        </mxCell>
        <mxCell id="R1ZFnsMOZ1m3BJX5WP95-7" value="" style="endArrow=classic;startArrow=classic;html=1;rounded=0;entryX=0.128;entryY=0.487;entryDx=0;entryDy=0;entryPerimeter=0;strokeColor=#8F8F8F;strokeWidth=3;" edge="1" parent="1" target="R1ZFnsMOZ1m3BJX5WP95-1">
          <mxGeometry width="50" height="50" relative="1" as="geometry">
            <mxPoint x="110" y="280" as="sourcePoint" />
            <mxPoint x="160" y="230" as="targetPoint" />
          </mxGeometry>
        </mxCell>
        <mxCell id="R1ZFnsMOZ1m3BJX5WP95-9" value="" style="endArrow=none;startArrow=none;html=1;rounded=0;elbow=vertical;startFill=0;endFill=0;" edge="1" parent="1">
          <mxGeometry width="50" height="50" relative="1" as="geometry">
            <mxPoint x="410" y="287" as="sourcePoint" />
            <mxPoint x="370.02" y="287.42" as="targetPoint" />
          </mxGeometry>
        </mxCell>
        <mxCell id="R1ZFnsMOZ1m3BJX5WP95-10" value="" style="endArrow=none;html=1;rounded=0;" edge="1" parent="1">
          <mxGeometry width="50" height="50" relative="1" as="geometry">
            <mxPoint x="410" y="290" as="sourcePoint" />
            <mxPoint x="430" y="200" as="targetPoint" />
          </mxGeometry>
        </mxCell>
      </root>
    </mxGraphModel>
  </diagram>
</mxfile>
